HIERARCHY
ROOT Hips
{
	OFFSET 0.000000 0.000000 0.000000
	CHANNELS 6 Xposition Yposition Zposition Zrotation Yrotation Xrotation 
	JOINT LeftUpLeg_virtual
	{
		OFFSET 0.000000 0.000000 0.000000
		CHANNELS 3 Zrotation Yrotation Xrotation
		JOINT LeftUpLeg
		{
			OFFSET 8.479694 -4.795517 -0.379053
			CHANNELS 3 Zrotation Yrotation Xrotation
			JOINT LeftLeg
			{
				OFFSET 0.485052 -32.551468 0.112863
				CHANNELS 3 Zrotation Yrotation Xrotation
				JOINT LeftFoot
				{
					OFFSET 0.438033 -32.635670 -3.012641
					CHANNELS 3 Zrotation Yrotation Xrotation
					JOINT LeftToeBase
					{
						OFFSET 0.970169 -13.225353 11.864223
						CHANNELS 3 Zrotation Yrotation Xrotation
						End Site
						{
							OFFSET 0.000000 0.000000 0.000000
						}
					}
				}
			}
		}
	}
	JOINT RightUpLeg_virtual
	{
		OFFSET 0.000000 0.000000 0.000000
		CHANNELS 3 Zrotation Yrotation Xrotation
		JOINT RightUpLeg
		{
			OFFSET -8.479694 -4.795517 -0.379053
			CHANNELS 3 Zrotation Yrotation Xrotation
			JOINT RightLeg
			{
				OFFSET -0.484100 -32.551483 0.112903
				CHANNELS 3 Zrotation Yrotation Xrotation
				JOINT RightFoot
				{
					OFFSET -0.438985 -32.635651 -3.012681
					CHANNELS 3 Zrotation Yrotation Xrotation
					JOINT RightToeBase
					{
						OFFSET -0.970169 -13.225354 11.864223
						CHANNELS 3 Zrotation Yrotation Xrotation
						End Site
						{
							OFFSET 0.000000 0.000000 0.000000
						}
					}
				}
			}
		}
	}
	JOINT Spine_virtual
	{
		OFFSET 0.000000 0.000000 0.000000
		CHANNELS 3 Zrotation Yrotation Xrotation
		JOINT Spine
		{
			OFFSET 0.000000 7.722015 1.166203
			CHANNELS 3 Zrotation Yrotation Xrotation
			JOINT Spine1
			{
				OFFSET 0.000000 12.024086 0.248766
				CHANNELS 3 Zrotation Yrotation Xrotation
				JOINT Spine2
				{
					OFFSET -0.000000 11.503036 -0.491240
					CHANNELS 3 Zrotation Yrotation Xrotation
					JOINT Neck_virtual
					{
						OFFSET 0.000000 0.000000 0.000000
						CHANNELS 3 Zrotation Yrotation Xrotation
						JOINT Neck
						{
							OFFSET 0.000000 18.430687 -3.123054
							CHANNELS 3 Zrotation Yrotation Xrotation
							JOINT Head
							{
								OFFSET -0.000000 9.051071 1.034021
								CHANNELS 3 Zrotation Yrotation Xrotation
								End Site
								{
									OFFSET 0.000000 0.000000 0.000000
								}
							}
						}
					}
					JOINT LeftShoulder_virtual
					{
						OFFSET 0.000000 0.000000 0.000000
						CHANNELS 3 Zrotation Yrotation Xrotation
						JOINT LeftShoulder
						{
							OFFSET 6.197824 13.665230 -4.064723
							CHANNELS 3 Zrotation Yrotation Xrotation
							JOINT LeftArm
							{
								OFFSET 7.778132 -0.187073 -1.709282
								CHANNELS 3 Zrotation Yrotation Xrotation
								JOINT LeftForeArm
								{
									OFFSET 21.954697 0.000000 -2.041093
									CHANNELS 3 Zrotation Yrotation Xrotation
									JOINT LeftHand
									{
										OFFSET 22.992908 0.000000 -0.870901
										CHANNELS 3 Zrotation Yrotation Xrotation
										End Site
										{
											OFFSET 0.000000 0.000000 0.000000
										}
									}
								}
							}
						}
					}
					JOINT RightShoulder_virtual
					{
						OFFSET 0.000000 0.000000 0.000000
						CHANNELS 3 Zrotation Yrotation Xrotation
						JOINT RightShoulder
						{
							OFFSET -6.197824 13.665230 -4.064723
							CHANNELS 3 Zrotation Yrotation Xrotation
							JOINT RightArm
							{
								OFFSET -7.778132 -0.187073 -1.709282
								CHANNELS 3 Zrotation Yrotation Xrotation
								JOINT RightForeArm
								{
									OFFSET -21.954697 0.000000 -2.041093
									CHANNELS 3 Zrotation Yrotation Xrotation
									JOINT RightHand
									{
										OFFSET -22.992908 0.000000 -0.870901
										CHANNELS 3 Zrotation Yrotation Xrotation
										End Site
										{
											OFFSET 0.000000 0.000000 0.000000
										}
									}
								}
							}
						}
					}
				}
			}
		}
	}
}
MOTION
Frames: 12
Frame Time: 0.033333
1.034464 81.781296 1.562366 -179.869562 -12.847315 179.437498 -4.108669 -5.123024 11.653984 6.886487 1.735189 -18.692413 2.788893 2.017799 27.228908 -2.251770 -9.789074 -8.961534 0.000000 0.000000 0.000000 -0.170778 -6.837137 11.483583 -3.574567 -10.502960 -12.155485 -1.528797 6.471126 23.489915 12.186486 7.981295 -9.612705 0.000000 0.000000 0.000000 0.850400 -2.275462 -2.794129 1.466325 0.831739 -9.871419 -0.393934 -0.538416 13.759065 0.004342 -0.033217 -0.068018 -0.603888 0.912321 13.373027 -1.869230 2.012431 -0.661575 0.000000 0.000000 0.000000 1.207500 1.269246 10.637060 -8.317030 -13.390787 8.041585 -53.035702 -22.612999 32.060484 -1.828908 -75.871367 26.163069 0.000000 0.000000 0.000000 -3.888825 3.548705 9.327380 18.595388 19.289991 12.393065 33.526537 36.478715 21.888335 -173.747718 68.778482 -174.141520 0.000000 0.000000 0.000000 
1.149456 81.764793 1.426852 -179.904164 -12.399135 179.522520 -4.263017 -5.081994 11.593549 7.015804 1.744202 -18.492280 3.001953 2.170438 27.197175 -2.344943 -9.668381 -9.123636 0.000000 0.000000 0.000000 -0.320606 -6.818802 11.512373 -3.402617 -10.261917 -12.209224 -1.580951 6.433669 23.510187 12.324127 8.017936 -9.440010 0.000000 0.000000 0.000000 0.667448 -2.187945 -2.912046 1.723625 0.900066 -9.745433 -0.301470 -0.654696 13.698041 0.001425 -0.084269 -0.115473 -0.464857 0.805057 13.299755 -1.221477 1.584329 -1.374186 0.000000 0.000000 0.000000 1.315724 1.248314 10.625622 -8.529122 -11.928901 8.123182 -54.343758 -17.824606 29.561192 -6.026790 -79.934202 31.506071 0.000000 0.000000 0.000000 -3.725532 3.574991 9.304566 19.084693 17.740508 12.561227 35.148789 32.520709 18.945025 -171.761349 69.316093 -172.823648 0.000000 0.000000 0.000000 
1.290618 81.744652 1.239984 -179.955267 -11.789103 179.642144 -4.440969 -4.992674 11.523677 7.190866 1.729328 -18.293446 3.214401 2.328465 27.235029 -2.447653 -9.550177 -9.315512 0.000000 0.000000 0.000000 -0.484577 -6.702591 11.578604 -3.197927 -9.857380 -12.319284 -1.675373 6.391177 23.555381 12.490728 8.018925 -9.244868 0.000000 0.000000 0.000000 0.473910 -2.034868 -3.104249 1.993458 0.974877 -9.635007 -0.188301 -0.733389 13.622420 0.030254 -0.047665 -0.068594 -0.438471 0.565583 13.292163 -0.552071 1.184013 -1.929134 0.000000 0.000000 0.000000 1.356295 1.150299 10.602285 -8.639233 -10.442629 8.254425 -55.484755 -13.086094 27.636667 -10.975148 -83.184047 37.758505 0.000000 0.000000 0.000000 -3.670859 3.486617 9.360245 19.767443 16.122419 12.622897 37.193409 28.605954 15.787893 -169.791290 69.582504 -171.626384 0.000000 0.000000 0.000000 
1.460283 81.723930 1.045804 179.986126 -11.036088 179.760142 -4.619208 -4.897533 11.479047 7.356564 1.723450 -18.151308 3.448628 2.499720 27.355020 -2.564434 -9.429199 -9.459707 0.000000 0.000000 0.000000 -0.663971 -6.483969 11.628947 -2.962351 -9.245998 -12.542569 -1.765009 6.335676 23.618984 12.651125 7.972599 -9.086573 0.000000 0.000000 0.000000 0.298749 -1.918588 -3.324908 2.254955 1.148980 -9.604607 -0.096662 -0.702384 13.615480 0.018512 -0.122488 -0.074543 -0.313064 0.587250 13.246419 0.189700 0.812629 -2.555353 0.000000 0.000000 0.000000 1.435419 0.990395 10.585908 -8.507146 -8.930448 8.266523 -56.505206 -8.742319 26.227592 -17.448176 -85.316460 45.650198 0.000000 0.000000 0.000000 -3.545862 3.320375 9.389520 20.567776 14.489526 12.533362 39.738768 25.002114 13.028257 -167.414999 69.772698 -170.104140 0.000000 0.000000 0.000000 
1.664313 81.694321 0.854650 179.918343 -10.129386 179.855506 -4.800744 -4.817099 11.434649 7.500565 1.738399 -18.044957 3.722255 2.669430 27.676002 -2.657663 -9.271697 -9.621838 0.000000 0.000000 0.000000 -0.846157 -6.190708 11.621289 -2.735530 -8.426631 -12.859028 -1.855744 6.268281 23.689102 12.818089 7.918358 -9.018657 0.000000 0.000000 0.000000 0.125773 -1.665815 -3.580203 2.497883 1.120850 -9.535053 -0.035482 -0.873223 13.593983 0.037436 -0.037628 -0.007390 -0.244951 0.550104 13.375471 0.946402 0.493023 -2.908253 0.000000 0.000000 0.000000 1.502596 0.908092 10.613590 -8.372718 -7.677960 8.339422 -57.292074 -5.211825 25.424290 -21.975157 -86.556556 51.563065 0.000000 0.000000 0.000000 -3.505391 3.209912 9.506755 21.470611 13.001667 12.477474 42.379592 22.081442 10.660534 -165.302012 69.831922 -168.865581 0.000000 0.000000 0.000000 
1.917263 81.657494 0.692894 179.820713 -9.052418 -179.979473 -4.991552 -4.943785 11.462136 7.608168 1.969326 -18.107491 4.018427 3.010543 28.105706 -2.733091 -9.049067 -9.659466 0.000000 0.000000 0.000000 -1.054892 -5.893525 11.652981 -2.531952 -7.408669 -13.145656 -1.905464 6.174471 23.841120 12.822913 7.778354 -8.945055 0.000000 0.000000 0.000000 0.000470 -1.528195 -3.905559 2.669825 1.238061 -9.468472 0.028057 -0.910107 13.515671 0.041590 0.032819 -0.037559 -0.040809 0.525609 13.519720 1.812586 0.113149 -3.258885 0.000000 0.000000 0.000000 1.635007 0.704254 10.726872 -8.130623 -6.730778 8.349755 -58.100437 -2.654126 25.319697 -18.701652 -87.175890 49.520121 0.000000 0.000000 0.000000 -3.326862 3.015664 9.607865 22.222096 11.629331 12.383132 45.175226 20.075966 9.229203 -163.361145 69.844258 -167.933383 0.000000 0.000000 0.000000 
2.238526 81.606796 0.567272 179.811656 -7.920834 -179.829619 -5.121022 -4.759660 11.311693 7.760918 2.033967 -18.181258 4.375957 2.982250 28.697207 -2.836317 -8.820078 -9.902589 0.000000 0.000000 0.000000 -1.275045 -5.329225 11.686297 -2.233130 -6.097751 -13.461101 -1.755995 5.978209 23.904790 12.524660 7.506489 -8.931768 0.000000 0.000000 0.000000 -0.030009 -1.465182 -4.238005 2.835913 1.254393 -9.329478 0.145055 -1.053509 13.458856 0.042413 0.041748 0.013455 0.030549 0.391139 13.610362 2.565046 -0.083369 -3.489510 0.000000 0.000000 0.000000 1.684528 0.594821 10.760039 -7.737646 -5.836325 8.256571 -58.849641 -1.071350 25.688594 -16.499015 -87.155106 48.320829 0.000000 0.000000 0.000000 -3.267372 2.957543 9.675240 22.959392 10.736494 12.160379 47.595121 19.064713 8.613569 -161.995285 69.837626 -167.280171 0.000000 0.000000 0.000000 
2.652950 81.549004 0.459903 179.816696 -6.510393 -179.704531 -5.174165 -4.455816 11.209992 7.900357 2.307093 -18.336056 4.697582 2.954385 29.347250 -3.061826 -8.612567 -9.855089 0.000000 0.000000 0.000000 -1.388310 -4.083012 11.743633 -1.881766 -5.064420 -13.778000 -1.646860 5.595579 24.200924 12.032664 7.134668 -8.946039 0.000000 0.000000 0.000000 -0.017025 -1.433474 -4.542883 2.920126 1.374276 -9.121721 0.291314 -0.926340 13.405166 0.020363 0.125492 0.047102 0.170189 0.236130 13.712011 3.282815 -0.198650 -3.651884 0.000000 0.000000 0.000000 1.790655 0.437438 10.763834 -7.368029 -5.376035 8.066741 -59.489104 -0.310159 26.365413 -10.170778 -87.179496 42.713401 0.000000 0.000000 0.000000 -3.120504 2.783533 9.718817 23.531178 10.123209 11.871768 49.702682 19.253690 8.691564 -160.608456 69.753655 -166.700629 0.000000 0.000000 0.000000 
3.215549 81.489113 0.381923 179.794826 -5.009344 -179.760662 -5.199978 -3.952098 11.281241 8.090116 2.714224 -18.477798 4.965323 2.725981 29.914825 -3.488732 -8.463021 -9.597375 0.000000 0.000000 0.000000 -1.404577 -3.878546 11.452451 -1.601348 -3.915221 -14.412918 -1.638196 5.625527 25.739949 11.689621 6.964057 -9.324683 0.000000 0.000000 0.000000 -0.076185 -0.924637 -4.710590 2.888068 1.447496 -8.772550 0.385989 -1.244243 13.363757 0.008298 0.142279 0.039718 0.292497 0.139701 13.793994 3.946804 -0.246574 -3.676630 0.000000 0.000000 0.000000 1.887889 0.362265 10.736986 -7.053757 -5.009360 7.921917 -59.856301 -0.249238 26.993152 -7.191780 -87.044545 40.234544 0.000000 0.000000 0.000000 -3.004855 2.691618 9.696098 23.980323 9.903016 11.447121 51.394838 20.392780 9.223629 -160.217988 69.541831 -167.009204 0.000000 0.000000 0.000000 
3.964549 81.441330 0.322352 179.786083 -3.692895 -179.705228 -5.190073 -3.360902 11.281214 8.434257 3.098991 -18.782867 5.183221 2.367432 30.333707 -4.072944 -8.298600 -9.145138 0.000000 0.000000 0.000000 -1.410586 -3.694761 11.315428 -1.196731 -2.804183 -15.054427 -1.689281 5.311588 26.695572 11.225226 6.941615 -9.178570 0.000000 0.000000 0.000000 -0.140951 -0.539614 -4.948731 2.793284 1.519559 -8.380203 0.507451 -1.387632 13.317044 -0.002844 0.119671 0.032261 0.376818 -0.003619 13.831912 4.543203 -0.280769 -3.750467 0.000000 0.000000 0.000000 1.986190 0.180759 10.693856 -6.628374 -4.789078 7.726843 -60.150375 -0.607688 27.381433 -4.702077 -87.053165 38.016696 0.000000 0.000000 0.000000 -2.865581 2.469162 9.745915 24.203318 9.998607 10.976245 52.825615 22.162444 10.219814 -160.169603 69.331454 -167.568569 0.000000 0.000000 0.000000 
4.939725 81.400253 0.279870 179.785701 -2.335456 -179.588691 -5.174583 -2.734180 11.304354 8.907420 3.816611 -19.069417 5.340394 1.921001 30.740738 -4.820705 -8.092287 -8.557833 0.000000 0.000000 0.000000 -1.359021 -3.268857 11.312526 -0.506948 -2.468627 -15.521868 -1.885059 5.142437 27.080930 10.905745 7.235593 -8.916719 0.000000 0.000000 0.000000 -0.235057 -0.162374 -5.238351 2.615609 1.568454 -8.002145 0.629467 -1.556472 13.279623 -0.009855 0.125735 0.049167 0.447322 -0.336549 13.872352 5.201685 -0.311893 -3.706304 0.000000 0.000000 0.000000 1.985330 0.062683 10.654316 -6.185188 -4.698590 7.468500 -60.290169 -1.248481 27.467602 -4.305500 -86.996126 37.740828 0.000000 0.000000 0.000000 -2.853998 2.389174 9.712350 24.528514 10.141185 10.538686 53.850205 24.327283 11.388461 -160.272889 69.103817 -168.166347 0.000000 0.000000 0.000000 
6.132575 81.356346 0.304705 179.830398 -1.049945 -179.523026 -5.153690 -2.283106 11.238408 9.607136 4.456951 -19.512037 5.435436 1.560635 31.244629 -5.696589 -7.798749 -7.805279 0.000000 0.000000 0.000000 -1.361784 -2.884019 11.183446 0.333597 -1.839581 -15.949822 -2.132608 4.552372 27.293972 10.808001 7.670929 -8.825733 0.000000 0.000000 0.000000 -0.248608 -0.109053 -5.527279 2.309216 1.728989 -7.564513 0.699775 -1.499267 13.195986 0.022129 0.151583 0.086148 0.563330 -0.331472 14.038792 5.814672 -0.376900 -3.599746 0.000000 0.000000 0.000000 1.981382 -0.143638 10.762720 -5.671565 -4.821629 7.189478 -60.316991 -2.014713 27.304152 -5.599980 -87.149881 38.919774 0.000000 0.000000 0.000000 -2.727724 2.182574 9.595054 24.707089 10.289054 9.995073 54.496713 26.354331 12.382277 -160.680282 69.052434 -168.982719 0.000000 0.000000 0.000000 
